<?xml version="1.0" encoding="UTF-8"?>
<svg id="Warstwa_2" data-name="Warstwa 2" xmlns="http://www.w3.org/2000/svg" viewBox="0 0 498.79 95.69">
  <defs>
    <style>
      .cls-1 {
        fill: #fff;
      }
    </style>
  </defs>
  <g id="Warstwa_1-2" data-name="Warstwa 1">
    <g>
      <g>
        <path class="cls-1" d="M89.04,48.32c0,3.02-.02,6.05-.07,9.07-.04,2.66-.09,5.32-.15,7.97-.03,1.14-.06,2.28-.09,3.41-.38,10.31-9.85,19.82-19.87,19.95h-.06c-13.9.42-28,.42-41.88,0-4.02-.15-7.93-1.68-11.2-4.09-1.51-1.11-2.89-2.41-4.08-3.85-1.45-1.75-2.62-3.7-3.43-5.76l-5.41,4.22c.96,2,2.17,3.9,3.59,5.63,1.18,1.44,2.49,2.77,3.92,3.97,4.58,3.84,10.33,6.3,16.38,6.53,7.02.21,14.08.32,21.15.32s14.12-.11,21.13-.32c12.4-.17,23.77-10.48,26.02-22.86.21-1.15.34-2.33.38-3.51.05-1.49.09-2.98.12-4.47.08-3.25.13-6.5.16-9.77-2.26-2.4-4.51-4.63-6.62-6.44ZM95.37,26.67c-.51-13.86-12.84-26.16-26.4-26.35C54.94-.11,40.72-.11,26.67.32,12.81.83.51,13.16.32,26.72-.11,40.74-.11,54.95.32,68.97c.02,1.6.22,3.19.56,4.74l6.09-4.75s0-.07,0-.11v-.06c-.43-13.9-.43-28,0-41.9v-.06c.13-10.02,9.63-19.49,19.93-19.87,6.95-.21,13.95-.32,20.95-.32s14,.11,20.95.32h.06c10.02.13,19.49,9.63,19.87,19.93.14,4.79.24,9.6.28,14.42,2.09,1.45,4.36,3.39,6.68,5.61,0-6.77-.11-13.53-.32-20.26Z"/>
        <path class="cls-1" d="M95.66,54.77c-.03,3.26-.09,6.52-.16,9.77-2.22-2.55-4.44-5.01-6.52-7.14-3.32-3.4-6.27-5.98-8.23-6.85-2.34-1.04-5.39.5-8.39,2.92-2.57,2.07-5.09,4.78-7.09,7.05-.67.76-1.29,1.48-1.82,2.1-.8.93-1.49,1.72-2.1,2.4-6.19,6.78-13.5,7.72-21.72,2.81-5.4-3.23-9.81-1.02-10.54-.61l-17.43,13.58-5.25,4.09c-1.42-1.74-2.63-3.63-3.59-5.63l5.41-4.22,17.05-13.27.12-.08c.33-.22,8.2-5.21,17.65.44,5.7,3.41,9.16,2.44,12.25-.43.39-.36.77-.75,1.15-1.17.55-.6,1.2-1.36,1.97-2.25.79-.92,1.65-1.92,2.57-2.96,1.86-2.08,3.96-4.3,6.23-6.24,2.08-1.78,4.31-3.32,6.61-4.33,3.12-1.37,6.39-1.72,9.64-.27,1.62.72,3.52,2.08,5.59,3.86,2.1,1.81,4.36,4.04,6.62,6.44Z"/>
        <g>
          <path class="cls-1" d="M73.93,46.67c0,2.44-.57,4.74-1.58,6.79-2.57,2.07-5.09,4.78-7.09,7.05-2.03.99-4.3,1.54-6.7,1.54-1.13,0-2.23-.12-3.29-.36.39-.36.77-.75,1.15-1.17.55-.6,1.2-1.36,1.97-2.25.79-.92,1.65-1.92,2.57-2.96,3.02-.84,5.4-3.22,6.23-6.24.22-.76.33-1.57.33-2.4,0-1.49-.36-2.89-1.01-4.12-1.49-2.88-4.5-4.85-7.96-4.85-4.95,0-8.97,4.02-8.97,8.97,0,2.17.78,4.17,2.07,5.73.04.04.07.08.1.12.42.54.68,1.23.68,1.97,0,1.77-1.44,3.2-3.2,3.2-.88,0-1.67-.35-2.26-.93,0,0,0,0-.01-.01-.12-.13-.23-.27-.34-.41-2.14-2.64-3.43-6.01-3.43-9.67,0-8.48,6.9-15.37,15.37-15.37,5.85,0,10.96,3.29,13.55,8.12.87,1.62,1.46,3.42,1.7,5.32.08.63.12,1.28.12,1.93Z"/>
          <path class="cls-1" d="M46.97,56.75c-.13-.13-.24-.26-.34-.41.11.14.23.28.34.41Z"/>
        </g>
        <path class="cls-1" d="M60.89,16.61v7.89c0,1.23-1,2.23-2.23,2.23s-2.23-1-2.23-2.23v-7.89c0-1.23,1-2.23,2.23-2.23s2.23,1,2.23,2.23Z"/>
        <path class="cls-1" d="M28.51,44.52h7.89c1.23,0,2.23,1,2.23,2.23s-1,2.23-2.23,2.23h-7.89c-1.23,0-2.23-1-2.23-2.23s1-2.23,2.23-2.23Z"/>
        <path class="cls-1" d="M38.92,23.86l5.58,5.58c.87.87.87,2.29,0,3.16s-2.29.87-3.16,0l-5.58-5.58c-.87-.87-.87-2.29,0-3.16s2.29-.87,3.16,0Z"/>
        <path class="cls-1" d="M81.54,27.02l-5.58,5.58c-.87.87-2.29.87-3.16,0s-.87-2.29,0-3.16l5.58-5.58c.87-.87,2.29-.87,3.16,0s.87,2.29,0,3.16Z"/>
      </g>
      <path class="cls-1" d="M159.57,27.98c0-2.26-1.82-4.16-4.07-4.16h-33.83c-2.33,0-4.15,1.9-4.15,4.16s1.82,4.16,4.15,4.16h12.37v38.64c0,2.55,1.96,4.45,4.51,4.45s4.51-1.9,4.51-4.45v-38.64h12.44c2.26,0,4.07-1.9,4.07-4.16ZM171.71,35.85c-5.02,0-8.66.87-12.37,2.26-1.38.51-2.4,1.82-2.4,3.5,0,2.04,1.67,3.65,3.71,3.65.36,0,.87-.07,1.38-.22,2.4-.95,5.09-1.53,8.51-1.53,6.18,0,9.53,2.84,9.53,8.38v.95c-2.98-.95-5.97-1.6-10.33-1.6-9.38,0-15.86,4.01-15.86,12.39v.15c0,7.8,6.4,11.88,13.6,11.88,5.89,0,9.89-2.48,12.51-5.61v1.46c0,1.97,1.75,3.72,4.29,3.72,2.4,0,4.29-1.82,4.29-4.23v-18.95c0-5.03-1.31-9.04-4.15-11.88-2.76-2.84-6.98-4.3-12.73-4.3ZM180.22,61c0,4.96-4.44,8.24-10.26,8.24-4.29,0-7.49-2.11-7.49-5.83v-.15c0-4.08,3.27-6.42,9.02-6.42,3.49,0,6.47.66,8.73,1.53v2.62ZM218.12,35.56c-6.33,0-10.26,3.21-13.09,7.22v-2.41c0-2.55-1.89-4.45-4.44-4.45s-4.36,1.9-4.36,4.45v42.14c0,2.55,1.96,4.37,4.36,4.37,2.55,0,4.44-1.82,4.44-4.37v-13.63c2.69,3.57,6.69,6.78,13.09,6.78,9.09,0,17.82-7.14,17.82-19.97v-.15c0-12.83-8.8-19.97-17.82-19.97ZM226.99,55.68c0,7.58-4.95,12.32-10.99,12.32s-11.2-4.96-11.2-12.32v-.15c0-7.36,5.17-12.32,11.2-12.32s10.99,4.88,10.99,12.32v.15ZM258.77,35.56c-10.99,0-18.77,8.97-18.77,20.05v.15c0,11.88,8.66,19.97,19.72,19.97,6.04,0,10.33-1.97,13.82-5.1.65-.66,1.16-1.6,1.16-2.7,0-2.04-1.53-3.57-3.49-3.57-1.09,0-1.6.29-2.26.8-2.55,2.04-5.38,3.35-9.09,3.35-5.75,0-10.11-3.43-11.06-9.77h24.08c2.26,0,4.15-1.68,4.15-4.23,0-8.89-6.04-18.95-18.26-18.95ZM248.73,52.91c.8-6.05,4.51-10.13,9.97-10.13,5.82,0,9.17,4.52,9.75,10.13h-19.72ZM312.31,63.63c-1.09,0-1.89.44-2.4.95-2.4,2.04-5.09,3.43-8.58,3.43-6.77,0-11.49-5.47-11.49-12.32v-.15c0-6.71,4.73-12.25,11.13-12.25,3.49,0,5.97,1.31,8.22,3.28.58.51,1.53.87,2.62.87,2.26,0,4.07-1.75,4.07-4.01,0-1.46-.8-2.55-1.38-3.06-3.27-2.84-7.35-4.81-13.46-4.81-11.57,0-20.01,9.19-20.01,20.12v.15c0,10.94,8.44,19.9,19.86,19.9,6.4,0,10.55-2.19,13.97-5.47.8-.66,1.24-1.6,1.24-2.77,0-2.11-1.67-3.86-3.78-3.86ZM326.63,35.92c-2.55,0-4.36,1.9-4.36,4.45v30.47c0,2.55,1.96,4.37,4.36,4.37,2.55,0,4.44-1.82,4.44-4.37v-30.47c0-2.55-1.89-4.45-4.44-4.45ZM326.63,21.71c-2.84,0-5.02,1.68-5.02,4.3v.44c0,2.62,2.18,4.37,5.02,4.37s5.02-1.75,5.02-4.37v-.44c0-2.62-2.18-4.3-5.02-4.3ZM354.92,35.85c-5.02,0-8.66.87-12.37,2.26-1.38.51-2.4,1.82-2.4,3.5,0,2.04,1.67,3.65,3.71,3.65.36,0,.87-.07,1.38-.22,2.4-.95,5.09-1.53,8.51-1.53,6.18,0,9.53,2.84,9.53,8.38v.95c-2.98-.95-5.97-1.6-10.33-1.6-9.38,0-15.86,4.01-15.86,12.39v.15c0,7.8,6.4,11.88,13.6,11.88,5.89,0,9.89-2.48,12.51-5.61v1.46c0,1.97,1.75,3.72,4.29,3.72,2.4,0,4.29-1.82,4.29-4.23v-18.95c0-5.03-1.31-9.04-4.15-11.88-2.76-2.84-6.98-4.3-12.73-4.3ZM363.44,61c0,4.96-4.44,8.24-10.26,8.24-4.29,0-7.49-2.11-7.49-5.83v-.15c0-4.08,3.27-6.42,9.02-6.42,3.49,0,6.47.66,8.73,1.53v2.62ZM397.91,35.85c-3.86,0-7.64,3.57-9.68,8.46v-3.94c0-2.55-1.89-4.45-4.44-4.45s-4.36,1.9-4.36,4.45v30.47c0,2.55,1.96,4.37,4.36,4.37,2.55,0,4.44-1.97,4.44-4.37v-11.37c0-9.11,4.22-13.92,10.55-15.02,1.96-.36,3.49-1.9,3.49-4.23,0-2.55-1.53-4.37-4.36-4.37ZM427.37,35.56c-6.04,0-9.46,3.13-12,6.71v-1.9c0-2.55-1.89-4.45-4.44-4.45s-4.37,1.9-4.37,4.45v30.47c0,2.55,1.96,4.37,4.37,4.37,2.55,0,4.44-1.82,4.44-4.37v-17.71c0-6.05,3.49-9.55,8.66-9.55s8.22,3.35,8.22,9.4v17.86c0,2.55,1.89,4.37,4.44,4.37s4.36-1.82,4.36-4.37v-20.56c0-8.97-4.95-14.73-13.68-14.73ZM453.62,21.71c-2.84,0-5.02,1.68-5.02,4.3v.44c0,2.62,2.18,4.37,5.02,4.37s5.02-1.75,5.02-4.37v-.44c0-2.62-2.18-4.3-5.02-4.3ZM453.62,35.92c-2.55,0-4.36,1.9-4.36,4.45v30.47c0,2.55,1.96,4.37,4.36,4.37,2.55,0,4.44-1.82,4.44-4.37v-30.47c0-2.55-1.89-4.45-4.44-4.45ZM494.65,40.15c-2.76-2.84-6.98-4.3-12.73-4.3-5.02,0-8.66.87-12.37,2.26-1.38.51-2.4,1.82-2.4,3.5,0,2.04,1.67,3.65,3.71,3.65.36,0,.87-.07,1.38-.22,2.4-.95,5.09-1.53,8.51-1.53,6.18,0,9.53,2.84,9.53,8.38v.95c-2.98-.95-5.97-1.6-10.33-1.6-9.38,0-15.86,4.01-15.86,12.39v.15c0,7.8,6.4,11.88,13.6,11.88,5.89,0,9.89-2.48,12.51-5.61v1.46c0,1.97,1.75,3.72,4.29,3.72,2.4,0,4.29-1.82,4.29-4.23v-18.95c0-5.03-1.31-9.04-4.15-11.88ZM490.43,61c0,4.96-4.44,8.24-10.26,8.24-4.29,0-7.49-2.11-7.49-5.83v-.15c0-4.08,3.27-6.42,9.02-6.42,3.49,0,6.47.66,8.73,1.53v2.62Z"/>
    </g>
  </g>
</svg>